/* XPM */
static char *fc9f487c0b6f4de09a913551ac9ecb54[] = {
/* columns rows colors chars-per-pixel */
"32 32 138 2 ",
"   c #450F95",
".  c #5114AC",
"X  c #4F09B9",
"o  c #530FB3",
"O  c #591FB1",
"+  c #5B1EB8",
"@  c #632BB9",
"#  c #6532B5",
"$  c #6E3DBD",
"%  c #713EBC",
"&  c #5D4088",
"*  c #5B19C1",
"=  c #5D18CC",
"-  c #6120CE",
";  c #6629CB",
":  c #733CCF",
">  c #6725D4",
",  c #6B2AD9",
"<  c #7335DA",
"1  c #7639DE",
"2  c #7A3EDF",
"3  c #7333E3",
"4  c #7444C1",
"5  c #7A4EC3",
"6  c #794DC8",
"7  c #7A45D6",
"8  c #7D42E3",
"9  c #7E41EB",
"0  c #937DB5",
"q  c #8156C7",
"w  c #8158C1",
"e  c #875BCC",
"r  c #8D5CC9",
"t  c #915CCC",
"y  c #8755D5",
"u  c #8C5CDC",
"i  c #8966C7",
"p  c #8E6DC1",
"a  c #8F6BCE",
"s  c #9160CC",
"d  c #9C79C7",
"f  c #9271CD",
"g  c #9E76C9",
"h  c #9E7BC9",
"j  c #8A61D7",
"k  c #9F7EDA",
"l  c #A27EC9",
"z  c #A07BDC",
"x  c #844CE4",
"c  c #8956E4",
"v  c #8B5BE0",
"b  c #864BF3",
"n  c #8546FB",
"m  c #8E57F4",
"M  c #9369E0",
"N  c #A27CE3",
"B  c #A59DB2",
"V  c #9E88C5",
"C  c #A483C7",
"Z  c #A28CC2",
"A  c #A584C9",
"S  c #AA8BCC",
"D  c #A590CB",
"F  c #A993CB",
"G  c #AF9DCE",
"H  c #B09BC6",
"J  c #B29DC8",
"K  c #A78FD4",
"L  c #A584DA",
"P  c #AF97D0",
"I  c #B39DD3",
"U  c #B6A7C5",
"Y  c #B7AAC5",
"T  c #B9ADC5",
"R  c #B1A0CE",
"E  c #B4A8CA",
"W  c #BAACC9",
"Q  c #BEB2CC",
"!  c #BFB8CB",
"~  c #BCA8DA",
"^  c #BDB1D1",
"/  c #A781EA",
"(  c #B498E7",
")  c #B394ED",
"_  c #B598E9",
"`  c #C1B4CF",
"'  c #C3BCCD",
"]  c #C2B4D0",
"[  c #C6BCD5",
"{  c #C2B4D9",
"}  c #C6B1E7",
"|  c #C3C2C4",
" . c #C6C9C4",
".. c #C9CBC6",
"X. c #C7C5CB",
"o. c #C8C6C9",
"O. c #CCCBCC",
"+. c #CFD1CC",
"@. c #CDC7D5",
"#. c #CBC2DA",
"$. c #D1CED3",
"%. c #D4CEDE",
"&. c #D3D3D3",
"*. c #D6D8D3",
"=. c #DADBD7",
"-. c #D8D7D9",
";. c #DCDCDC",
":. c #DDE1D7",
">. c #DEE1DC",
",. c #E1E4DD",
"<. c #D3C7E6",
"1. c #D4C9E7",
"2. c #D2C3ED",
"3. c #DFDFE0",
"4. c #DCD3EA",
"5. c #E0DEE2",
"6. c #E2DDEC",
"7. c #E6DEF3",
"8. c #E2D6F8",
"9. c #E4E4E4",
"0. c #E7EAE3",
"q. c #E9ECE6",
"w. c #E7E7E8",
"e. c #E8E7E9",
"r. c #EAEBEA",
"t. c #EFF4E7",
"y. c #EEF1EB",
"u. c #F1F2EE",
"i. c #F4F8EE",
"p. c #E7E1F0",
"a. c #EAE6F1",
"s. c #EFEDF2",
"d. c #EEE8FA",
"f. c #F3F3F2",
"g. c #F5F8F1",
"h. c #FBFCF6",
"j. c #FEFEFC",
"k. c None",
/* pixels */
"k.k.k.k.k.k.k.k.k.k.k.k.k.k.k.k.k.k.k.k.k.k.k.k.k.k.k.k.k.k.k.k.",
"k.k.k.k.k.k.k.k.k.k.k.k.C J W ! ! W J A k.k.k.k.k.k.k.k.k.k.k.k.",
"k.k.k.k.k.k.k.k.k.d Q &.,.0.q.q.r.q.0.,.&.` d k.k.k.k.k.k.k.k.k.",
"k.k.k.k.k.k.k.r ] >.q.r.e.e.e.e.e.e.e.e.r.q.,.` r k.k.k.k.k.k.k.",
"k.k.k.k.k.k.A -.q.e.w.w.e.e.r.r.r.r.r.w.w.w.e.y.-.l k.k.k.k.k.k.",
"k.k.k.k.k.S ,.e.9.9.w.r.e.r.r.r.r.r.r.e.e.w.w.e.e.>.S k.k.k.k.k.",
"k.k.k.k.A ,.9.9.w.w.w.r.r.r.r.r.r.r.r.r.e.e.q.9.0.9.;.C k.k.k.k.",
"k.k.k.r -.9.9.9.w.e.s.y.y.y.s.r.y.y.y.r.e.e.e.9.9.5.9.&.r k.k.k.",
"k.k.k.^ 0.;.9.9.e.q.T Z #.f.s.y.u.s.s.s.y.e.e.9.9.9.5.,.Y k.k.k.",
"k.k.d *.;.5.9.9.e.9.p y L f.f.f.f.s.y.y.s.y.e.w.9.9.,.5.+.d k.k.",
"k.k.Y ;.;.9.9.9.e.y.4.} p.f.f.f.f.f.f.y.y.r.e.w.9.9.;.;.*.U k.k.",
"k.k.| =.;.;.9.9.e.9.U E { h.h.f.f.f.f.f.s.s.y.e.9.9.3.;.&.| k.k.",
"k.A ..-.;.3.9.9.y.3.w 7 N h.f.f.f.f.f.f.u.y.r.9.9.9.;.;.&. .C k.",
"k.J ..&.;.>.9.9.r.9.r x / j.j.j.j.j.j.j.h.f.f.g.r.9.3.;.O. .J k.",
"k.U ..&.;.3.9.9.r.3.q 8 / ;.D K p.#.{ ^ V %.! 0 W 0.;.-.O...U k.",
"k.T ..O.-.;.9.9.y.3.6 8 u 6 _ ) c j 9 z v : p e @ [ ,.&.O...T k.",
"k.T  .O.*.;.;.9.r.3.4 2 8 b k f b n m j.~ , 7.%.+ I >.O.O...T k.",
"k.U ..O.O.-.;.9.e.;.$ < 1 3 _ 2.<.M 9 h.G - 4.X.. P :.$.O...U k.",
"k.H ..O.&.&.;.3.e.-.# > u N 7 5 i a 8 h.R ; 4.X.. F :.O.O...J k.",
"k.A  .O.O.&.&.-.t.B O = z h.p.8.d.s.a.f.w.6.9.>.$.$.&.$.O. .A k.",
"k.k.| O.O.$.=.o.&   X * 1.i.f.g.f.f.f.r.q.q.9.;.;.&.&.O. .| k.k.",
"k.k.U  .O.O.&.O.  o % { u.e.e.r.r.e.r.e.0.5.3.-.-.&.O.o...U k.k.",
"k.k.h  .o.O.&.&.' @.0.0.9.9.e.e.e.w.0.9.9.3.;.-.*.O...O. .h k.k.",
"k.k.k.U ..O...&.-.=.;.;.3.3.9.9.9.9.3.3.;.;.-.&.&.O.O...U k.k.k.",
"k.k.k.s |  .O.O.&.&.-.-.;.;.>.3.5.>.;.;.-.-.*.&.+.O.o.| s k.k.k.",
"k.k.k.k.C  .o.O.O.O.&.&.=.-.-.=.-.-.-.&.&.&.O.O.O.o. .C k.k.k.k.",
"k.k.k.k.k.A  .| O.O.O.&.&.&.&.&.&.&.&.&.&.+.O.o.|  .A k.k.k.k.k.",
"k.k.k.k.k.k.l | ..o.O...O.+.&.$.+.&.&.O.O.O.O...| l k.k.k.k.k.k.",
"k.k.k.k.k.k.k.t U  ...O.o.O.O.O.O.O.O.O.O. . .Y t k.k.k.k.k.k.k.",
"k.k.k.k.k.k.k.k.k.g Y |  ............. .| U d k.k.k.k.k.k.k.k.k.",
"k.k.k.k.k.k.k.k.k.k.k.k.A H U T T U H A k.k.k.k.k.k.k.k.k.k.k.k.",
"k.k.k.k.k.k.k.k.k.k.k.k.k.k.k.k.k.k.k.k.k.k.k.k.k.k.k.k.k.k.k.k."
};
