/* XPM */
static char *_67dffa8367b481bd55c6d569d4891c5[] = {
/* columns rows colors chars-per-pixel */
"64 64 195 2 ",
"   c #1D005F",
".  c #351762",
"X  c #411C7E",
"o  c #4D3373",
"O  c #37008A",
"+  c #3E00A0",
"@  c #451093",
"#  c #55289B",
"$  c #593795",
"%  c #4B08AA",
"&  c #561CAA",
"*  c #520CB6",
"=  c #5C1CBD",
"-  c #5615B6",
";  c #4B0BAB",
":  c #5A23AE",
">  c #5E34A3",
",  c #5F30B2",
"<  c #6337A7",
"1  c #6326BD",
"2  c #6433B7",
"3  c #654699",
"4  c #6A519B",
"5  c #705A96",
"6  c #79649B",
"7  c #6D6082",
"8  c #6943AA",
"9  c #6E4AAB",
"0  c #6846A5",
"q  c #714EAD",
"w  c #7354AB",
"e  c #7A5EA8",
"r  c #7446B8",
"t  c #7B59B4",
"y  c #7955B6",
"u  c #6C45B4",
"i  c #7E62AB",
"p  c #550FC3",
"a  c #621FCF",
"s  c #621ED3",
"d  c #5F25CA",
"f  c #6324C4",
"g  c #692DC3",
"h  c #6324CC",
"j  c #6A2CCE",
"k  c #632DC5",
"l  c #6B34C7",
"z  c #7739CB",
"x  c #6B2BD4",
"c  c #6829D7",
"v  c #7726D1",
"b  c #772AD1",
"n  c #7A2CD1",
"m  c #6E30D2",
"M  c #7135D5",
"N  c #7E32D0",
"B  c #753AD4",
"V  c #7F3AD0",
"C  c #7234DA",
"Z  c #763ADB",
"A  c #783DDC",
"S  c #6C2AE1",
"D  c #7A3DE5",
"F  c #7B3DEC",
"G  c #7636E8",
"H  c #7D3CF3",
"J  c #7D44DC",
"K  c #7945D7",
"L  c #7D4FC8",
"P  c #7D42E3",
"I  c #7E44EC",
"U  c #805ABA",
"Y  c #8369A9",
"T  c #8D71B9",
"R  c #8B4ECD",
"E  c #8D54CC",
"W  c #845AC2",
"Q  c #915ECA",
"!  c #824BDC",
"~  c #8653DD",
"^  c #8C5BDC",
"/  c #8855DD",
"(  c #8F6DC3",
")  c #9261CB",
"_  c #9A6FC9",
"`  c #986CC7",
"'  c #9D76C7",
"]  c #9C72C9",
"[  c #9F79C9",
"{  c #9A77C5",
"}  c #8C64D9",
"|  c #9469D7",
" . c #9B73D9",
".. c #9B76D5",
"X. c #A07BC9",
"o. c #A078DC",
"O. c #834BE4",
"+. c #8146EB",
"@. c #8247E7",
"#. c #8955E2",
"$. c #8953EC",
"%. c #8A56E4",
"&. c #8142F4",
"*. c #854BF5",
"=. c #894DFA",
"-. c #894DF6",
";. c #8E52FE",
":. c #8E58F2",
">. c #935DF2",
",. c #9364E1",
"<. c #9B71E2",
"1. c #A375F9",
"2. c #8B8497",
"3. c #988BAD",
"4. c #9887B5",
"5. c #9D91B2",
"6. c #A398B4",
"7. c #A18DBF",
"8. c #ACA5B8",
"9. c #B3ADBE",
"0. c #A383C6",
"q. c #A585C8",
"w. c #AC94C6",
"e. c #AD9AC4",
"r. c #B09EC4",
"t. c #B09FC9",
"y. c #AE98D2",
"u. c #AB91D8",
"i. c #B3A3C4",
"p. c #B5AAC2",
"a. c #B8ACC4",
"s. c #B7AACE",
"d. c #BEBAC3",
"f. c #BCB7C1",
"g. c #BEAEDA",
"h. c #B99DE7",
"j. c #B693F4",
"k. c #AC8AE6",
"l. c #BFA5EB",
"z. c #BDA2E7",
"x. c #C0BDC3",
"c. c #C3BFC8",
"v. c #C1AFDE",
"b. c #C3BAD2",
"n. c #C1ACE3",
"m. c #C5B2E4",
"M. c #D2B9FD",
"N. c #C5ABF3",
"B. c #C5C5C5",
"V. c #C7CBC2",
"C. c #C8CDC2",
"Z. c #C6C5C8",
"A. c #CBCBCB",
"S. c #C9C7CB",
"D. c #CED3C9",
"F. c #CDD1C7",
"G. c #D1D5CD",
"H. c #D4DACE",
"J. c #D3CBDE",
"K. c #D3D3D3",
"L. c #D6DAD2",
"P. c #D9DED4",
"I. c #D5D2D9",
"U. c #DCDCDC",
"Y. c #D8D6DB",
"T. c #CAC4D5",
"R. c #DEE2DA",
"E. c #DAE0D4",
"W. c #E1E3DE",
"Q. c #D7CDE6",
"!. c #DFDFE0",
"~. c #DAC4FE",
"^. c #D6C9EB",
"/. c #E0DFE2",
"(. c #E2DDEA",
"). c #E2D7F3",
"_. c #E4E4E4",
"`. c #EAEDE5",
"'. c #E7E5E9",
"]. c #E8E7E9",
"[. c #EBEBEB",
"{. c #E6E9E2",
"}. c #EFF1EC",
"|. c #EDF0E5",
" X c #F1F3EE",
".X c #F7FCED",
"XX c #EEEBF1",
"oX c #ECE6F7",
"OX c #F0EEF2",
"+X c #F3F3F3",
"@X c #F6F9F1",
"#X c #FBFDF5",
"$X c #FBFBFB",
"%X c #F7F7F8",
"&X c None",
/* pixels */
"&X&X&X&X&X&X&X&X&X&X&X&X&X&X&X&X&X&X&X&X&X&X&X&X&X&X&X&X&X&X&X&X&X&X&X&X&X&X&X&X&X&X&X&X&X&X&X&X&X&X&X&X&X&X&X&X&X&X&X&X&X&X&X&X",
"&X&X&X&X&X&X&X&X&X&X&X&X&X&X&X&X&X&X&X&X&X&X&X&X&X&X&X&X&X&X&X&X&X&X&X&X&X&X&X&X&X&X&X&X&X&X&X&X&X&X&X&X&X&X&X&X&X&X&X&X&X&X&X&X",
"&X&X&X&X&X&X&X&X&X&X&X&X&X&X&X&X&X&X&X&X&X&X&X&X&XN E ] q.w.e.i.r.r.w.q.] E N &X&X&X&X&X&X&X&X&X&X&X&X&X&X&X&X&X&X&X&X&X&X&X&X&X",
"&X&X&X&X&X&X&X&X&X&X&X&X&X&X&X&X&X&X&X&X&X&XR 0.i.f.B.C.F.F.D.G.G.G.F.F.C.V.f.i.0.R &X&X&X&X&X&X&X&X&X&X&X&X&X&X&X&X&X&X&X&X&X&X",
"&X&X&X&X&X&X&X&X&X&X&X&X&X&X&X&X&X&X&Xb { p.V.D.L.U.!._._.[.[.'.[.[.[._._._.U.L.D.V.p.' v &X&X&X&X&X&X&X&X&X&X&X&X&X&X&X&X&X&X&X",
"&X&X&X&X&X&X&X&X&X&X&X&X&X&X&X&X&Xb 0.f.D.P.W.'.[.[.[.].].].].[._.].'.].[.[.'.[.]._.U.D.d.0.b &X&X&X&X&X&X&X&X&X&X&X&X&X&X&X&X&X",
"&X&X&X&X&X&X&X&X&X&X&X&X&X&X&X&X` d.H.R.'.[.].'._._.].[.].`.[._.[.[._.[.[._._.[.].{.[._._.L.d.` &X&X&X&X&X&X&X&X&X&X&X&X&X&X&X&X",
"&X&X&X&X&X&X&X&X&X&X&X&X&X&XN i.G._.'.].'.'.{.].[.].].`.].].[.[.].].[.[._.[.[._.].]._.].].'.W.G.i.N &X&X&X&X&X&X&X&X&X&X&X&X&X&X",
"&X&X&X&X&X&X&X&X&X&X&X&X&XQ B.R.'.'._.{.'.].'.].].].].].].[.[.[.].].`.[.[.].].].].[.].].'.{.'.'.R.Z.Q &X&X&X&X&X&X&X&X&X&X&X&X&X",
"&X&X&X&X&X&X&X&X&X&X&X&X' G._._.{._.'.].{.].].{.].[.`.].[.[.[.[.[.[.[.[.].[.{.[.{.].{.{._.'.[.[._._.D.' &X&X&X&X&X&X&X&X&X&X&X&X",
"&X&X&X&X&X&X&X&X&X&X&Xq.P._._._._.].'.{.'.].[.[.].[.].[.[.[.[.[.[.[.].[.].].].].{.].].].].{.[.OX[._._.H.0.&X&X&X&X&X&X&X&X&X&X&X",
"&X&X&X&X&X&X&X&X&X&Xq.E._._._._._.'.{.].].{.].[.[.`.[.[.[.[.[.[.[.[.[.[.[.[.[.[.[.].].'.'.{._._._._._._.L.0.&X&X&X&X&X&X&X&X&X&X",
"&X&X&X&X&X&X&X&X&X' P._._._._._._.'.].'.].{.].[.[.[.[.[.[.[.OX[.[.[.[.[.[.[.[.'.[.].].{.].{.'._._._._./._.G.{ &X&X&X&X&X&X&X&X&X",
"&X&X&X&X&X&X&X&XQ G._.U._._._._.'.{.{.].].].[.[.[.[.[.[.[.[.[.[.[.[.[.[.XX[.[.[.[.[.[.].'.'.{.'._._._._._.U.C.) &X&X&X&X&X&X&X&X",
"&X&X&X&X&X&X&Xz Z._._._._._._._.{.].{.].[.].].[.}.XX[.[. X[.OX[.[.}.[.}.}.}.[.[.[.].[.{.].'.{._._._._.W./._.U.d.V &X&X&X&X&X&X&X",
"&X&X&X&X&X&X&Xi.R.!.U._._._._._.].].].].[. X X+XOX[.[.}.[.OX[.[.+X[.OX[.[.OX}.[.[.[.[.].[.{.'._._._._./._.U.W.G.i.&X&X&X&X&X&X&X",
"&X&X&X&X&X&X_ G./.!././.W._._.].].].].].].B.8.p.Y.+X X X[.XXOX XXXXX}.}.}.}.XX[.[.[.].'.[.].'.'._._._._._.U.!.U.C._ &X&X&X&X&X&X",
"&X&X&X&X&Xb f.P.R././.W./._._._.W.].].}.6.Y ( ( T Q.+X[.OX X X[.OX}.XX}.XXXX}.[.[.}.[.[.[.].{.{._._._._.W.!.!.U.D.f.n &X&X&X&X&X",
"&X&X&X&X&X0.F.U.!.!././._._._.].].].|.Y.Y  ...o.| y.@X X X XOX+X XOX X XOXOX X}.XX}.[.[.'.[.{.'._._._.U.!.!.U._.K.C.0.&X&X&X&X&X",
"&X&X&X&Xn f.K.!.U.!.W.W.W._._._.].].[._.{ )  . .^ n.@XOXOXOX+XOX+X+XOXOXOX XXX}.XX[.}.[.[.{.].'._._._._.!._.U.U.Y.B.f.n &X&X&X&X",
"&X&X&X&X[ V.I.U.U.!././._._.W.].].].[.}.J... . .h.[. XOX+X+X+X+X X+X+X+XOX+XXXOXXX}.[.[.[.].'.'._._._.W.U./.U.U.U.B.V.[ &X&X&X&X",
"&X&X&X&Xa.V.U.U.U.!./.W.!.W.]._.].].[.[.+X X(.XX%X@X XOX+X+X+X+X+X+X+X+X X+X XOX X}.}.XX[.].[.{.]._._./._.U.U.U.U.S.V.p.&X&X&X&X",
"&X&X&XR B.V.U.U.U.U.!._._._._.].].].[.[.!.U._._.W.[.+X+X+X+X@X+X%X+X+X+X+X+X+X+XXX XXX[.[.[.[.{._._._._.!.U.U.U.U.S.B.B.R &X&X&X",
"&X&X&X0.V.B.I.U.U.R.!.!./.W.]._.].].[._.6 e i i w s.$X+X%X+X%X%X+X%X+X%X+X+X+X X XXXXX}.}.[.].'.]._._.W.U.W.!.U.U.A.B.C.q.&X&X&X",
"&X&X&Xp.V.Z.P.Y.R.R.!.!.W._._.].{.].}./.Y / ^ ,./ l.$X+X%X%X%X%X%X%X%X+X%X+X+X XOXOX}.}.}.[.].{.]._._.!.!.!.U.Y.U.S.B.V.i.&X&X&X",
"&X&XN x.B.Z.Y.Y.U.U.!.!./._._.].].`.}._.U / ^ ,.#.n.$X+X%X%X%X%X%X%X%X%X+X%X+X+X+X XOX}.[.[.[.'.]._._._.!.!.U.P.L.A.B.B.x.N &X&X",
"&X&XE B.B.Z.I.P.U.U.R./.W._._.].].].XX/.t ~ ^ ^ O.z.$X%X%X%X%X%X$X$X%X%X%X%X%X X+XOXOXOXXX[.].'._.W.W./.!.R.U.Y.I.A.V.B.V.E &X&X",
"&X&X] V.Z.B.K.Y.Y.U.!.!./.W.]._.{.[.}./.y ~ #.%.O.N.#X+X$X$X$X$X%X%X$X$X$X%X+X%X%X@XOX[.[.[.XX}.]._._./.!.U.U.U.K.S.B.B.C.] &X&X",
"&X&Xq.C.Z.Z.D.U.Y.U.R././._._.].].[.}./.w ! ~ #.O.h.$X$X@X_.!.}.$X$X%X%X X%X$X XU.U.@X+X+X[.I.K.W.]._.!.U.U.U.P.D.S.S.B.C.q.&X&X",
"&X&Xw.V.B.S.Z.I.Y.P.U./././.W.].].[.OX/.w J ! ~ P l. X3.5 8 u y 4.XXT.4 w s.9.4 9 9 Y '.Z.7 3 3 4 p.{.!.U.U.U.I.A.S.S.B.V.w.&X&X",
"&X&Xr.V.B.Z.A.K.Y.Y.R.U./.W._.].].[.}.R.9 J J O.+.k.6 2 +.1.1.=.H ,.s.K ;.~ 2 K +.@.Z W $ g B B z < b.{.U.U.Y.K.A.A.Z.V.Z.r.&X&X",
"&X&Xi.V.B.S.S.D.P.U.U.U.W./._._.{.].XX!.u J J ! @.J K *.~.$X$XM.=.;.} J ;.*.j.oXh.P O.A ^ Q.T.L z 1 { `.U.U.K.K.A.A.Z.B.C.i.&X&X",
"&X&Xr.C.B.S.S.A.G.Y.U.U.!.W.W.].].]. X!.8 Z J J P @.I $.y.5.5.4.K ;.;.I =.:.%X$X XL P C m..X.X7.1 g W {.U.Y.K.A.A.A.C.Z.C.r.&X&X",
"&X&Xr.C.B.S.C.K.K.K.Y.U.!././._._.].[.U.< B Z A P P P I c d h x F H H I I >.+X%X[.y Z C m.}. X6.: g W W.U.K.K.D.A.S.Z.B.C.r.&X&X",
"&X&Xw.C.B.S.S.A.A.G.U.U.R.U./._.]._.}.U.< M B Z A P F I M.~.M.M.M.~.j.F H $.OX%X Xq Z x n.}. X5.& f U _.I.K.K.A.A.S.Z.Z.C.w.&X&X",
"&X&Xq.C.B.S.A.A.A.K.K.Y.U.!.!._._.].|.U.> m M C C C Z G u.`..X#X X|.b.l H $.XX%X[.9 C c v.}. X5.& f U R.K.K.K.K.K.S.Z.B.C.q.&X&X",
"&X&X] C.B.B.S.A.A.K.K.I.Y.W.R.W._._.}.I.# m j M S <.J S c , 0 3 $ > t.k G I  X+X[.0 c h g.|. X3.& - r R.K.G.A.A.K.C.Z.B.C.] &X&X",
"&X&XE B.B.Z.C.A.A.K.K.K.Y.Y.!.!._._.}.S.# j j m s z.'.<.P G S S G >.y.l I %.OX+X[.q B j n.`.}.5.& - r U.K.K.K.A.S.Z.Z.B.B.E &X&X",
"&X&XN x.B.Z.S.A.A.A.K.K.I.P.U.U.!.U.@X6.@ j h j s m.$X#XXX).).).oX%X%X[.XXXX XOX}.(.'._.'.]._.U.I.I.K.K.K.K.A.D.A.Z.C.B.x.N &X&X",
"&X&X&Xi.C.Z.S.A.A.A.K.G.I.P.Y.!.[.@XG.o - f f h j (.+XOX@X#X%X%X%X+X+X%X+X+X XXXXX}.[.{._._././.U.U.P.I.K.K.K.S.C.Z.Z.Z.i.&X&X&X",
"&X&X&Xq.C.B.Z.Z.A.K.A.K.K.K.P.Z.2.7 . @ = = f p | .X[.+X XOX+X+X X+X X+XXX}.XX[.[.[.{._._./.!.U.U.P.I.K.K.K.A.A.A.Z.B.V.0.&X&X&X",
"&X&X&XE B.Z.S.C.A.A.K.K.K.K.W.8.  O % - - - * g (. X[.OXXX XOXOXXXOXOXXX}.}.}.[.[.'._._._.R.U.U.Y.Y.K.K.A.K.A.D.A.Z.B.B.R &X&X&X",
"&X&X&X&Xa.C.Z.Z.S.D.A.K.K.K.U.Z.@ * ; ; % % l Q.|.].[.|.[.[. X[.}.}.}.}.[.[.[.'.'.'._._././.U.U.Y.K.K.K.K.A.S.S.Z.B.C.a.&X&X&X&X",
"&X&X&X&X' V.B.Z.S.A.A.K.A.I.I.G.X + % & z w.].|.].].].].[.[.[.[.[.[.[.'.[.[.'.'._._._.!.!.U.U.P.P.K.K.K.K.A.D.S.Z.B.C.' &X&X&X&X",
"&X&X&X&Xb x.B.Z.Z.S.D.A.A.K.K.I.8.i.b.I.{.`._./.].].].].].].].].'.[.[.[._.{.{._.W._./.!.R.U.P.Y.I.K.K.D.D.A.A.S.B.B.x.n &X&X&X&X",
"&X&X&X&X&Xq.C.B.S.S.A.A.A.K.D.K.U.W.U.R.U.U./.R./._.W._.{.{.].].'.'.'.'._._._._.W.!.!.U.U.Y.Y.Y.K.K.K.K.A.S.S.S.Z.C.q.&X&X&X&X&X",
"&X&X&X&X&Xb f.B.B.V.S.A.K.A.K.K.K.I.I.U.U.U.U./././._._._._._._._._._._._._.!.!.!.R.U.U.P.Y.L.K.K.K.A.A.D.S.B.B.B.f.b &X&X&X&X&X",
"&X&X&X&X&X&X] C.B.Z.S.A.A.A.K.D.K.I.I.L.U.U.U.U.R.!./.W./._.W./.W._.W.!./.W.!.!.!.U.U.Y.Y.I.K.K.K.K.A.A.S.Z.B.B.V.] &X&X&X&X&X&X",
"&X&X&X&X&X&X&Xi.C.Z.B.Z.S.A.A.K.K.K.K.I.Y.K.U.U.U.R.!.R./.W././././.R./.R.R.U.U.U.Y.P.I.I.K.K.K.A.A.A.A.B.B.B.V.i.&X&X&X&X&X&X&X",
"&X&X&X&X&X&X&XV x.B.B.B.Z.D.A.A.A.K.K.K.K.Y.L.Y.Y.U.Y.U.U./.U.U.R.!.U.R.U.U.U.Y.P.Y.I.I.K.K.A.K.A.A.A.S.Z.B.B.x.V &X&X&X&X&X&X&X",
"&X&X&X&X&X&X&X&X) V.B.B.Z.Z.A.A.A.K.A.K.K.K.K.Y.Y.Y.Y.U.Y.P.U.P.U.Y.Y.Y.Y.Y.Y.Y.K.Y.D.K.K.K.K.S.A.A.S.Z.Z.B.C.) &X&X&X&X&X&X&X&X",
"&X&X&X&X&X&X&X&X&XX.V.B.Z.Z.S.A.A.A.K.K.G.K.K.K.L.K.K.Y.P.Y.Y.Y.Y.Y.P.Y.Y.L.K.K.K.G.K.K.K.A.A.D.A.C.Z.Z.B.C.X.&X&X&X&X&X&X&X&X&X",
"&X&X&X&X&X&X&X&X&X&Xq.C.B.B.C.Z.F.A.A.A.A.K.A.K.L.K.K.G.K.I.K.Y.K.P.L.I.K.K.K.K.K.A.K.A.A.K.S.D.S.Z.B.B.V.q.&X&X&X&X&X&X&X&X&X&X",
"&X&X&X&X&X&X&X&X&X&X&Xq.C.B.B.Z.Z.Z.A.D.A.K.A.K.K.K.K.K.K.K.I.K.K.K.K.K.K.K.K.K.K.K.K.A.S.D.Z.Z.Z.B.B.C.q.&X&X&X&X&X&X&X&X&X&X&X",
"&X&X&X&X&X&X&X&X&X&X&X&XX.V.B.B.B.Z.Z.D.A.A.A.K.A.K.A.K.G.K.K.K.K.K.G.K.A.K.K.A.K.A.A.C.S.S.B.Z.B.B.V.X.&X&X&X&X&X&X&X&X&X&X&X&X",
"&X&X&X&X&X&X&X&X&X&X&X&X&X) x.V.B.Z.Z.Z.S.S.A.D.A.A.A.K.A.K.A.A.A.A.K.A.K.A.A.A.A.A.S.S.S.B.B.B.V.x.) &X&X&X&X&X&X&X&X&X&X&X&X&X",
"&X&X&X&X&X&X&X&X&X&X&X&X&X&XV i.C.B.Z.B.B.Z.Z.Z.A.A.A.A.A.A.A.D.A.A.A.A.A.A.A.A.S.Z.Z.Z.B.B.B.C.i.V &X&X&X&X&X&X&X&X&X&X&X&X&X&X",
"&X&X&X&X&X&X&X&X&X&X&X&X&X&X&X&X_ x.C.B.B.B.B.B.Z.S.S.C.A.A.S.D.A.A.C.S.A.S.S.S.B.B.V.B.B.C.x._ &X&X&X&X&X&X&X&X&X&X&X&X&X&X&X&X",
"&X&X&X&X&X&X&X&X&X&X&X&X&X&X&X&X&Xv q.x.C.V.Z.B.Z.B.Z.Z.Z.Z.Z.Z.S.S.S.S.B.B.B.B.Z.B.V.V.x.q.v &X&X&X&X&X&X&X&X&X&X&X&X&X&X&X&X&X",
"&X&X&X&X&X&X&X&X&X&X&X&X&X&X&X&X&X&X&Xn X.a.B.V.C.B.B.B.B.Z.B.Z.B.B.B.B.B.B.B.C.V.B.a.[ b &X&X&X&X&X&X&X&X&X&X&X&X&X&X&X&X&X&X&X",
"&X&X&X&X&X&X&X&X&X&X&X&X&X&X&X&X&X&X&X&X&X&XR q.i.x.B.V.F.C.C.Z.C.C.C.C.C.V.d.i.q.R &X&X&X&X&X&X&X&X&X&X&X&X&X&X&X&X&X&X&X&X&X&X",
"&X&X&X&X&X&X&X&X&X&X&X&X&X&X&X&X&X&X&X&X&X&X&X&X&XN E ] q.w.r.r.i.r.w.q.] E N &X&X&X&X&X&X&X&X&X&X&X&X&X&X&X&X&X&X&X&X&X&X&X&X&X",
"&X&X&X&X&X&X&X&X&X&X&X&X&X&X&X&X&X&X&X&X&X&X&X&X&X&X&X&X&X&X&X&X&X&X&X&X&X&X&X&X&X&X&X&X&X&X&X&X&X&X&X&X&X&X&X&X&X&X&X&X&X&X&X&X",
"&X&X&X&X&X&X&X&X&X&X&X&X&X&X&X&X&X&X&X&X&X&X&X&X&X&X&X&X&X&X&X&X&X&X&X&X&X&X&X&X&X&X&X&X&X&X&X&X&X&X&X&X&X&X&X&X&X&X&X&X&X&X&X&X"
};
