/* XPM */
static char *_10a6508a4ab46d4aaff15bfcb3ee22c[] = {
/* columns rows colors chars-per-pixel */
"16 16 144 2 ",
"   c #5B2B9F",
".  c #5A1CBE",
"X  c #7333E4",
"o  c #7B49C5",
"O  c #7B48CF",
"+  c #855EC0",
"@  c #8558CF",
"#  c #824FD7",
"$  c #9B76D9",
"%  c #834DE6",
"&  c #9E84C8",
"*  c #A88ECF",
"=  c #AC95C6",
"-  c #AD95C7",
";  c #AD96C7",
":  c #AF9EC9",
">  c #B19DC6",
",  c #B19EC6",
"<  c #B49DCE",
"1  c #A281DD",
"2  c #AA8FD9",
"3  c #AB90D6",
"4  c #AD93DE",
"5  c #B59FDF",
"6  c #B6A3CB",
"7  c #BAA7CF",
"8  c #BBB1C6",
"9  c #BFBAC6",
"0  c #B5A3D1",
"q  c #B8A5D6",
"w  c #BEAAD4",
"e  c #A380E1",
"r  c #AC89E7",
"t  c #AF91E8",
"y  c #B392F0",
"u  c #BDA9E0",
"i  c #C0BAC6",
"p  c #C0BBC6",
"a  c #C7B8DF",
"s  c #C1ADE5",
"d  c #D0BDEE",
"f  c #C6C5C7",
"g  c #C7C7C8",
"h  c #C6C1CC",
"j  c #C8C4CF",
"k  c #C8C8C8",
"l  c #C9C9C8",
"z  c #CAC9CA",
"x  c #CBCBCA",
"c  c #CACCC8",
"v  c #CACDC8",
"b  c #CBCDC8",
"n  c #CBCACD",
"m  c #CDCCCE",
"M  c #CDD0CA",
"N  c #CED0CD",
"B  c #CFD0CD",
"V  c #C9C2D3",
"C  c #CAC5D0",
"Z  c #CCC2D6",
"A  c #CECDD0",
"S  c #CFCED1",
"D  c #CBC1DB",
"F  c #CEC4D9",
"G  c #D0C6DB",
"H  c #D0D0D0",
"J  c #D0D0D1",
"K  c gray82",
"L  c #D2D3D0",
"P  c #D2D2D3",
"I  c #D4D5D2",
"U  c #D4D6D2",
"Y  c #D5D5D5",
"T  c #D5D5D6",
"R  c gray84",
"E  c #DBDDD7",
"W  c #D7D7D8",
"Q  c #D6D0DC",
"!  c #D7D1DD",
"~  c #D9D9DA",
"^  c #DADADA",
"/  c #DCDFD8",
"(  c #DBDBDC",
")  c gainsboro",
"_  c #DDDCDE",
"`  c gray87",
"'  c #DFDFDF",
"]  c #DFE1DD",
"[  c #E0E2DC",
"{  c #E0E1DE",
"}  c #E0E2DF",
"|  c #E1E3DF",
" . c #E2E4DF",
".. c #D6CBE7",
"X. c #D6CAED",
"o. c #DFDEE1",
"O. c #DCD4EA",
"+. c #E0DFE2",
"@. c #E1E2E0",
"#. c #E1E0E2",
"$. c #E2E1E3",
"%. c #E2E2E3",
"&. c #E2E4E0",
"*. c #E4E4E3",
"=. c #E4E5E3",
"-. c #E3E2E4",
";. c #E3E3E4",
":. c #E4E3E5",
">. c #E4E4E5",
",. c #E5E6E5",
"<. c #E6E6E5",
"1. c #E6E5E7",
"2. c #E6E7E6",
"3. c #E7E6E7",
"4. c #E7E7E7",
"5. c #E7E9E4",
"6. c #E8EBE5",
"7. c #E8EAE6",
"8. c #E9EBE7",
"9. c gray91",
"0. c #E9E8E9",
"q. c gray92",
"w. c #EBECE9",
"e. c #EBEEE8",
"r. c #EBECEA",
"t. c #EDEFE9",
"y. c #ECEDEB",
"u. c #ECECEC",
"i. c #EDECED",
"p. c #EDEDEE",
"a. c #EEEEEE",
"s. c #EFEEEF",
"d. c #F0F2EC",
"f. c #F4F6EF",
"g. c #F1F1F2",
"h. c #F4F6F1",
"j. c #F2F1F4",
"k. c #F6F8F2",
"l. c #F7FAF3",
"z. c #F8FBF2",
"x. c #F8F9F6",
"c. c #FCFDF7",
"v. c #FFFFF8",
"b. c None",
/* pixels */
"b.b.b.b.b.b.b.< < b.b.b.b.b.b.b.",
"b.b.b.b.w Q @.<.<.%.Q w b.b.b.b.",
"b.b.b.G 7.u.q.q.q.q.q.q.G b.b.b.",
"b.b.F 6.<.7.q.p.q.q.q.:.6.Z b.b.",
"b.7 @.>.<.* ..h.s.p.q.4.%.] 6 b.",
"b.C @.<.<.q O.x.j.g.p.9.%.@.h b.",
"b.m ' <.%.@ d v.c.z.f.e.5.' x b.",
"= x ( <.o.# e 5 t 4 2 & 0 ] x = ",
"= x Y 5.+.O X 1 % y $ 3 + E g - ",
"b.f m } j . r s u X.a D : I f b.",
"b.9 L n   o q.l.k.d.w.@.E B p b.",
"b., c m V  .<.%.:.%.' R J c , b.",
"b.b.8 M I R ( ( ' ( R J M 8 b.b.",
"b.b.b.8 b m H L L L m c 8 b.b.b.",
"b.b.b.b., p f x g f p , b.b.b.b.",
"b.b.b.b.b.b.b.- = b.b.b.b.b.b.b."
};
